#N canvas 0 46 958 1152 10;
#X obj 6 -6 unpackOSC;
#X obj 76 79 unpack 0 0;
#X floatatom 76 103 5 0 0 0 - - -, f 5;
#X floatatom 133 103 5 0 0 0 - - -, f 5;
#X text 68 117 gyro x;
#X text 127 117 gyro y;
#X obj 6 87 s ch;
#X obj 398 -35 r ch;
#X floatatom 398 320 5 0 0 0 - - -, f 5;
#X floatatom 413 299 5 0 0 0 - - -, f 5;
#X floatatom 428 278 5 0 0 0 - - -, f 5;
#X floatatom 444 257 5 0 0 0 - - -, f 5;
#X floatatom 459 234 5 0 0 0 - - -, f 5;
#X floatatom 475 212 5 0 0 0 - - -, f 5;
#X floatatom 537 116 5 0 0 0 - - -, f 5;
#X floatatom 490 186 5 0 0 0 - - -, f 5;
#X floatatom 506 161 5 0 0 0 - - -, f 5;
#X floatatom 521 137 5 0 0 0 - - -, f 5;
#X floatatom 552 93 5 0 0 0 - - -, f 5;
#X floatatom 568 71 5 0 0 0 - - -, f 5;
#X floatatom 583 45 5 0 0 0 - - -, f 5;
#X floatatom 599 21 5 0 0 0 - - -, f 5;
#X text 433 320 F3;
#X text 447 298 FC6;
#X text 463 278 P7;
#X text 477 257 T8;
#X text 491 233 F7;
#X text 507 212 F8;
#X obj 398 -6 unpack 0 0 0 0 0 0 0 0 0 0 0 0 0 0;
#X text 523 186 T7;
#X text 541 159 P8;
#X text 554 136 AF4;
#X text 570 115 F4;
#X text 585 93 AF3;
#X text 600 71 O2;
#X text 615 46 O1;
#X text 633 22 FC5;
#X obj 6 -38 udpreceive 7000;
#X obj 6 27 routeOSC /emokit;
#X obj 6 55 routeOSC /channels /gyro /battery /channel_quality;
#X floatatom 187 105 5 0 0 0 - - -, f 5;
#X floatatom 397 700 5 0 0 0 - - -, f 5;
#X floatatom 412 679 5 0 0 0 - - -, f 5;
#X floatatom 427 658 5 0 0 0 - - -, f 5;
#X floatatom 443 637 5 0 0 0 - - -, f 5;
#X floatatom 458 614 5 0 0 0 - - -, f 5;
#X floatatom 474 592 5 0 0 0 - - -, f 5;
#X floatatom 536 496 5 0 0 0 - - -, f 5;
#X floatatom 489 566 5 0 0 0 - - -, f 5;
#X floatatom 505 541 5 0 0 0 - - -, f 5;
#X floatatom 520 517 5 0 0 0 - - -, f 5;
#X floatatom 551 473 5 0 0 0 - - -, f 5;
#X floatatom 567 451 5 0 0 0 - - -, f 5;
#X floatatom 582 425 5 0 0 0 - - -, f 5;
#X floatatom 598 401 5 0 0 0 - - -, f 5;
#X text 432 700 F3;
#X text 446 678 FC6;
#X text 462 658 P7;
#X text 476 637 T8;
#X text 490 613 F7;
#X text 506 592 F8;
#X obj 397 374 unpack 0 0 0 0 0 0 0 0 0 0 0 0 0 0;
#X text 522 566 T7;
#X text 540 539 P8;
#X text 553 516 AF4;
#X text 569 495 F4;
#X text 584 473 AF3;
#X text 599 451 O2;
#X text 614 426 O1;
#X text 632 402 FC5;
#X obj 397 345 r ch_q;
#X obj 281 95 s ch_q;
#X text 184 122 battery level;
#X text 437 -34 Channel Value;
#X text 448 345 Channel Quality;
#X connect 0 0 38 0;
#X connect 1 0 2 0;
#X connect 1 1 3 0;
#X connect 7 0 28 0;
#X connect 28 0 8 0;
#X connect 28 1 9 0;
#X connect 28 2 10 0;
#X connect 28 3 11 0;
#X connect 28 4 12 0;
#X connect 28 5 13 0;
#X connect 28 6 15 0;
#X connect 28 7 16 0;
#X connect 28 8 17 0;
#X connect 28 9 14 0;
#X connect 28 10 18 0;
#X connect 28 11 19 0;
#X connect 28 12 20 0;
#X connect 28 13 21 0;
#X connect 37 0 0 0;
#X connect 38 0 39 0;
#X connect 39 0 6 0;
#X connect 39 1 1 0;
#X connect 39 2 40 0;
#X connect 39 3 71 0;
#X connect 61 0 41 0;
#X connect 61 1 42 0;
#X connect 61 2 43 0;
#X connect 61 3 44 0;
#X connect 61 4 45 0;
#X connect 61 5 46 0;
#X connect 61 6 48 0;
#X connect 61 7 49 0;
#X connect 61 8 50 0;
#X connect 61 9 47 0;
#X connect 61 10 51 0;
#X connect 61 11 52 0;
#X connect 61 12 53 0;
#X connect 61 13 54 0;
#X connect 70 0 61 0;
